<svg xmlns="http://www.w3.org/2000/svg" version="1" width="417" height="399" viewBox="-0.2 0.0 417.3 398.8"><path fill="#ffe100" d="M243 240q3 3 3 5l1 6-2 11-4 23q-2 15 0 25 1 4-8 8l-6 2-3 1q2-7-2-12-3-5-6-6-4-7-9-7l-4-2-5 1q10-4 13-14 3-9 1-21l-3-10-7-6 6-14 1-8q2-2 12-4l10-3 1 2q1 11 7 18l4 5"/><path fill="#b6aed1" d="M285 39q8 0 15 5 6 4 9 11 3 8 2 16-1 9-6 16 5 5 8 12 2 7-1 15-7 27-45 24l-15-5-17-6q-23-8-37-2 3-10 1-18l5-5-6 1q-4-13-11-25l6-14 4-10q13-6 23-7 7 0 16 3l13 2 11 1q2-8 12-12 5-2 13-2"/><path fill="#b6aed1" d="M285 28q1 7-1 11-10 0-16 4t-8 10h-9l-8-1-7-2-1-1q-6-3-8-11-2-7 0-15 2-9 8-15 7-7 17-7 19 0 29 15l4 12"/><path fill="#e6ebee" d="M199 107v14q-2 8-6 15-9 15-25 11l-2-9 16-15 17-16"/><path fill="#b6aed1" d="M235 49q-10-4-24 0-13 5-15 4-9-4-9-15t8-17q7-7 17-6 9 2 15 8-2 8 0 15t8 11"/><path fill="#e6ebee" d="M93 61l5 13q3 7 5 8l5 2-1 7-1 8-22-13 16 23 19 20-6 7-6 8-13-1q-17-5-26-16-10-15-2-39 3-8 11-15 6-6 16-12M165 33q1 5-3 9l5 9 4 7q-7-6-13-8l-14-3V37l-3-9q4-6 9-6 5-1 9 3 5 3 6 8"/><path fill="#e6ebee" d="M139 24q7 9 5 23-8 0-15 2t-13 7l-7-5 10-7q-4-1-6-4-3-3-3-7 0-5 3-8 3-4 8-6 10-4 18 5"/><path fill="#b6aed1" d="M174 40q5-5 13-3 0 5 2 9 2 5 6 7l-12 3-10 4-3-4q-2-11 4-16"/><path fill="#fff" d="M173 94q0 9-2 13-3 6-11 8l2-8 5-7 6-6"/><path fill="#ffe100" d="M173 94l6-3v10q0 7-2 10-13 5-19 9l2-7q7 1 10-5 3-5 3-14"/><path fill="#fff" d="M118 97v-9q7 3 11 8 6 5 7 10l1 6-9-3-6-4q-3-3-4-8"/><path fill="#ffe100" d="M106 99l1-8 1-7 10 4v9q1 5 4 8l6 3q4 2 9 1v8l-31-18"/><path fill="#efeddf" d="M148 179l1-16 2-24 12 12-7 16q-6 12-8 12"/><path fill="#686d70" d="M172 60l13-5 12-2-17 37q-10 4-17 14-5 9-5 20l-11 6-5-3-5-5v-8l-1-8q-2-8-16-16-11-7-17-8-4-3-10-21-6-17-6-24l16 9 13 10q12-9 28-9 17 1 28 13"/><path fill="#e6ebee" d="M179 91q2 0 4-5l4-8q7 12 11 25l-21 8q2-3 2-9V91"/><path fill="#efeddf" d="M4 341l8-10q10-10 20-5-8 0-17 8-9 9-11 18v1l-2-1-1-1q0-4 3-10"/><path fill="#59c2e1" d="M188 119l-22 19 3 10 3 11-13-13-13-12-21 7-22 8 7-9 9-11-19-20-16-23 53 31v5l5 5 5 3 11-6v-4q6-4 23-11 16-6 23-7-2 4-16 17"/><path fill="#efeddf" d="M295 345l2-10q2-5 6-7 4-3 9-1-4 3-7 10-3 6-3 16h-4l-3-8"/><path fill="#efeddf" d="M333 332q-4 1-8 8-5 7-5 12l-11 4q-8 1-7-1 0-7 2-13 3-11 8-15 11-7 21 5"/><path fill="#ffe100" d="M328 251l3 2 2 9 4 16q7 26 20 50 2 4-2 9-2 3-7 5 0-3-5-7t-10-3q-6-6-11-7t-10 2q-5-2-9 1l4-7 3-8q1-8-5-19l-10-16-18-14q-18-12-23-19l-7-16-4-13-2 9-3-10-3-9-1 14-8-12-8 1-10 1 1 6v6l-10 32-4 22q-1 11 1 18l-1 2-2 3-5 7-6 11q-10 22-8 57l-3 7q-4 5-9 7 2-2-2-10-3-8-8-9-8-10-17-9-7-1-13 1 0-3 3-6l8-7q7-9 12-33 3-12 3-21l-2-16 2-6 3-12q3-18-2-33-28-11-39-31-12-22-1-49l11-4 1 18 2 18 4-9q4-9 6-19 4 2 9 2h7l-1 26q2 0 8-12l7-16 9 8-4-12q12 3 21-6 7-7 9-16 11-4 23-2 8 1 21 7l21 7q12 3 23 0 7 4 11 20l3 16 3 28q2 21 4 25 5 13 15 21l6 4"/><path fill="#e6ebee" d="M109 147l11-4 1 18 2 18 4-9q4-9 6-19l8 2q0 9 2 17 2 10 5 16v5l-1 10-1 10 1 7 1 4v5q-28-12-38-31-12-22-1-49M234 215l1-9 3 8-4 1"/><path fill="#59c2e1" d="M415 81q1 1-5 15l-9 20 14 5-17 4-5 20-3-16-8 7-7 7 4-10 5-11-13-7h7l8 1q-6-9-26-25-19-17-28-21 7 20 4 69l-5 39q-3 18-7 27l-22-34 3-9 7 11 8 10q6-35 6-68 0-29-5-61 19 9 40 26 18 16 27 29l4-16 2 6 2 9 10-14 9-13"/><path fill="#e6ebee" d="M286 137q8-1 14-5 6 9 5 23 0 12-5 18l-2-16q-3-12-12-20"/><path fill="#efeddf" d="M130 160q-4 19-7 19l-2-14q-2-15-1-22l14-6q1 5-4 23"/><path fill="#e6ebee" d="M134 137l12-3 5 5-2 14h-7l-10-2 2-14"/><path fill="#efeddf" d="M200 295q4-1 7 1-6 0-12 8-6 7-9 16h-2l-2-3 6-11 5-7q3-3 7-4"/><path fill="#e6ebee" d="M208 230l1-8q5-4 20-7-1 4 1 12l2 9-2 10q-3 8-7 11-1 1-9-4t-11-10l2-6 3-7"/><path fill="#efeddf" d="M119 371q-7 10-8 24h-3l-2-1q-2-16 8-26 4-5 10-7 5-2 11-1-9 1-16 11"/><path fill="#e6ebee" d="M209 222v-8l-1-4 10-1 8-1 5 7h-2q-15 3-20 7M138 222q-8 6-16 18-6 10-10 21l-5 3h-4q0-2-3-5l-3-3-1-16q-1-13-4-16-2-2 4-23l8-23q2 13 10 25 9 11 24 19"/><path fill="#ffe100" d="M94 143l13 1-4 5 6-2q-7 16-5 31l-8 23q-6 21-4 23 3 3 4 16l1 16 3 3q3 3 3 5h4l5-3q-3 9-3 14 0 3-3 6l-8 8q-13 13-19 32-3 7-3 18v12l-10 5-14 2q3-2 1-10-2-7-6-9-2-7-6-10t-9-3q-2-2-6-2l4-3 8-6q11-10 18-27l4-14 2-15v-4-3l4-7 6-11q7-15 6-31-1-17 2-30 4-16 14-30"/><path fill="#efeddf" d="M111 395q0-9 4-17 4-9 10-14t13-4q7 1 14 9-8 1-17 12l-5 9-1 4-2 1-7 2q-9 2-9-2M213 299q3 3 2 4-6 3-11 8-4 5-6 11l-8 1q-5 0-4-3l7-12q7-12 14-12l6 3M11 339q5-7 12-10 8-4 14-2 7 2 10 12-7-2-18 5-12 6-11 11H9l-5-2v-1q1-6 7-13"/><path fill="#30353a" d="M236 141l-7-12-5 14q-6 14-6 21 5 12 5 22-6-12-15-25-11-14-19-19l7-10q8 6 15 17l8-12 8-13 5 2 7 7 7 7 2-8 11 4-7 21-8 25q-2-10 0-28l-8-13M74 250l-6 13-8 11 2-15 6-5 6-4M173 197l10-21-3 25-3 23q2 5 8 12l6 8 6-10 6-10-5-27-4-24 8 20 6 17 1 4v8l-1 8-5 14-4 10-5 9-4 5-15-22-12-20q2-10 10-29M308 244l2-11 5 8v15l-20-12-16-11q8 0 29 11"/><path fill="#30353a" d="M261 187q3-21 6-29l1 20 3 20 11 9q10 8 18 12l3-16q0 12 2 19l-1 12q-40-21-45-25l2-22M194 277l1 13-5 6-4 4q-13-32-13-37l7 10 8 13 6-9"/><path fill="#efeddf" d="M35 359q-16 0-17-4l2-5 8-6q10-7 19-6 4 1 6 10 2 8-1 10-2 2-17 1M152 369q5 1 8 9 4 7 2 10t-16 5q-14 3-17 1l2-4 5-9q9-13 16-12M215 303q2-1 4 1l4 6q4 8 0 11-3 3-14 3-12 0-11-2 6-15 17-19M333 332q5-1 10 3t5 7q0 3-9 8-11 6-18 5-4 0 2-12 6-11 10-11"/><path fill="#e50012" d="M122 95l3-3q6 4 8 8l-1 5-4 2q-3 0-5-2t-2-5l1-5"/><path fill="#686d70" d="M144 84l2-6q2-2 5-2 4 0 6 2 2 3 1 6l-2 6q-2 2-5 2t-5-2l-2-6M140 58q0-4 3-6 3-3 7-3t6 3q3 2 3 6t-2 7q-3 3-7 3t-7-3q-3-3-3-7"/><path fill="#e50012" d="M162 107l3-5 5-5q1 5-1 9t-4 4l-1-1-2-2"/><path fill="#30353a" d="M301 191l-7-16-9-18 8 5 6 4q2 7 2 16v9"/><path fill="#9b94b3" d="M289 130q18-7 24-28 1 6-1 12-7 27-45 24l-10-3-10-4q28 4 42-1M285 30q1 5-1 9l-10 2-8 3 5-9q4 0 8-4 3-5 3-13 3 6 3 12"/><path fill="#c1c6c9" d="M167 141q9-1 18-7 9-5 14-14-2 13-10 21-9 9-21 6l-1-6M75 134q-10-8-12-20 9 11 23 18 14 6 27 4l-6 8-13-1q-11-3-19-9"/><path fill="#dbdcdc" d="M118 91v-3l7 4-2 2-5-3"/><path fill="#dcc200" d="M118 88v3l-11-4 1-3 10 4"/><path fill="#c9c8bc" d="M2 346l5-1-3 7v1l-2-1-1-1 1-5M300 346l3-4-1 11h-4l-2-5 4-2"/><path fill="#c9c8bc" d="M302 355v-5q6 0 12-3 6-2 10-6-4 7-4 11l-11 4q-8 1-7-1"/><path fill="#c1c6c9" d="M234 215l1-9 3 8-4 1"/><path fill="#4da9c3" d="M302 171v-1l13 15 11 15-2 5-22-34M331 66q12 5 29 20t24 27q-9-11-28-26l-24-17-1-4"/><path fill="#c1c6c9" d="M298 160q2 0 4-4l3-9v15q-2 7-5 11l-2-13M133 145q7 4 17 2l-1 6h-7l-10-2 1-6"/><path fill="#c9c8bc" d="M182 317l1-2 6-2-3 7h-2l-2-3"/><path fill="#dcc200" d="M240 301l1 9q1 4-8 8l-6 2-3 1v-9q12-3 16-11M208 249h-1l-5-5 1-1 5 6M243 240q3 3 3 5l1 6-2 11-2 9q-7-11-17-17 3-4 5-11l1-7-2-9q-2-8-1-12h2l1 2q1 11 7 18l4 5"/><path fill="#c1c6c9" d="M229 215q-1 4 1 12l2 9-1 7q-2 7-5 11-8-5-18-5l-5-6 5-13 1-8 9-4 11-3"/><path fill="#c9c8bc" d="M106 386h3l4-3-1 6-1 6h-3l-2-1v-8"/><path fill="#c1c6c9" d="M209 222v-8l-1-4 10-1 8-1 5 7h-2q-15 3-20 7M99 191l5-13q2 13 10 25 9 11 24 19-11 8-20 25-8-20-25-35l6-21"/><path fill="#dcc200" d="M66 343q6-3 10-8v16l-10 5-14 2q2-1 2-4l-1-7q7-1 13-4M94 143l13 1-4 5 6-2q-7 16-5 31l-5 13-6 21-15-13q0-15 3-28 3-15 13-28"/><path fill="#c9c8bc" d="M111 395v-3l1-3q4 2 11-1l12-6-5 8-1 4-2 1-7 2q-9 2-9-2M186 319q8 0 15-2l-3 5-8 1q-5 0-4-3v-1M6 347q2 2 7 2l9-1q-5 4-4 7H9l-5-2v-1l1-2 1-3"/><path fill="#c9c8bc" d="M35 359q-16 0-17-4l1-3q10 2 18 0 10-2 14-9l3 9q0 5-2 6-2 2-17 1M132 388q8 0 15-2 8-2 14-7l2 5-1 4q-2 3-16 5-14 3-17 1l1-2 2-4M213 318q6-2 10-8l2 7q0 3-2 4-3 3-14 3-12 0-11-2l1-3 14-1M344 336l3 3 1 3q0 3-9 8-11 6-18 5-2 0-1-5 8 0 14-4 7-4 10-10"/><path fill="#c6000b" d="M123 94l2-2 8 8v2l-10-8"/><path fill="#515457" d="M146 90q4 0 7-2 4-2 5-6 1 4-1 7t-6 3q-3 0-5-2M142 63q4 3 10 1 6-3 7-8 0 5-2 8-3 4-7 4l-4-1-4-4M165 98q7-7 17-10l-2 2q-10 4-17 14-5 9-5 20l-11 6-5-3-5-5v-2l7 5 3 2 4-1 4-4q1-15 10-24"/><path fill="#4da9c3" d="M171 157l1 2-14-13-13-13 4-1 10 11 12 14"/><path fill="#dcc200" d="M245 222l-2-6-2 9-3-10-3-9-1 14-8-12-8 1q-6 2-9 1l-2-6 20-4 12-4 3 11 3 15"/><path fill="#c1c6c9" d="M147 203v12l2 12q-20-8-31-20-13-14-14-30 16 19 43 26"/><path fill="#dcc200" d="M174 362l1 4v9l-4 6q-4 5-8 6 1-1-1-6-1-5-4-7l7-2 9-10M354 323l2 4 2 5q0 2-3 5-3 4-7 5l-1-3-3-4q4-1 6-4 4-3 4-8"/><path fill="#dbdcdc" d="M173 94v3l-3 2v-2l-6 8h-1q4-6 10-11"/><path fill="#dcc200" d="M180 94l-7 3v-3l6-3 1 3"/><path fill="#c6000b" d="M170 99l-6 6 6-8v2"/><path fill="#9b94b3" d="M309 59q3 10 1 17-1 4-6 11-1-2-6-3-6-2-12-1 23-4 23-24"/><path fill="#9b94b3" d="M277 75q10-1 20-9-4 11-16 12-11 2-19-7 7 4 15 4M292 121q-5 3-10 2t-9-4q-4-3-5-9 5 7 15 8 9 0 17-4-3 5-8 7"/><path fill="#0d131a" d="M164 104l1-1 2-2v4l-1 2q-2 0-2-3"/><path fill="#fff" d="M168 101h1v2h-2v-1-1h1"/><path fill="#0d131a" d="M124 92l1 1-2 2-1 5 2 4 4 2q2 0 3-2 2-1 2-4l1 1-2 4-4 2q-3 0-5-2l-3-5 1-5 3-3"/><path fill="#0d131a" d="M127 96l2 1 1 2-1 2-1 1-2-1-1-2 1-2 1-1M92 60l1 2q-10 6-15 12-8 7-11 14-4 10-3 20t7 18q5 8 14 12 10 5 22 5 0-1 0 0l-1 1q-12 1-22-4-10-4-16-12t-7-18q-1-11 3-22 3-8 12-16l16-12M122 38v3l-4 5-8 5-1-1 8-6q3-2 3-4 1-3 2-2"/><path fill="#0d131a" d="M139 24q8 9 6 23h-2q2-13-5-22t-17-5q-10 3-10 13l2 6q3 3 6 3v2l-1 1q-4-1-6-4-3-4-3-8 0-5 3-9 3-5 9-7 10-4 18 7"/><path fill="#0d131a" d="M164 36q1-2-1-5-2-7-9-8-8-2-12 5h-1l-1-1q5-9 14-7t12 9v7l-3 6 4 9 6 8h-1l-6-8-5-9v-1l3-5M198 108l2-2q2 8-1 18-3 13-10 20-5 4-10 5t-11-1v-1l1-1q10 3 18-4 6-6 9-15 4-10 2-19M186 78l1-2q8 13 12 27l-2 1q-3-14-11-26"/><path fill="#0d131a" d="M189 71l7-17-14 3-10 4-1-1v-1l11-4 14-3h2l-1 3-8 22-8 15q-7 1-14 9-8 10-8 23l-6 4-6 4-7-5-4-5q1-9-1-16-2-10-17-17-9-4-16-5-3-1-9-20-6-16-7-25l1-2h2l14 8 14 9v2h-1l-14-9-14-8q1 8 6 23 6 16 9 19 7 1 18 7 13 8 16 18l1 8v7l5 5 4 3 10-5q1-16 10-26 5-5 13-8l9-19"/><path fill="#0d131a" d="M174 62l1 3-1-1q-10-14-28-16-17-2-29 8h-1l-1-1q13-11 31-9t28 16M204 101q1 1-1 3-4 6-15 16l-21 18 2 8 3 10v4l-3-1-23-24-20 7-21 8h-3l2-4 7-9 6-8q-7-6-16-18-11-13-16-22-3-5 2-2l50 29v3L86 88l16 21q10 13 16 18l1 2-1 2-6 8-6 8 19-7 21-7 10 9 14 15-3-12-1-8 19-17 16-16-22 7-20 10-1-1 1-1q5-5 20-10l22-7 3-1"/><path fill="#0d131a" d="M107 84h2l-2 7v7l-1 1v-8l1-7M178 91h2v11l-2 9h-2q-1 0 0 0 2-3 2-9V91M152 101l-1 13-2 10-2 3v-3l2-11 1-14q0-3 1-2l1 4M149 152l1 1v1l-8 1-10-3 1-2 9 2h7"/><path fill="#0d131a" d="M134 138l1-1h1q-1 10-6 26-4 18-7 17-2 0-3-15-2-14-1-21l1-1h1v18l2 16q3-4 6-16l5-23M163 151l1 1-7 16q-7 14-9 12-2 0 0-20l2-21h2l-2 21q-2 15-1 18l7-14 6-13h1"/><path fill="#0d131a" d="M109 146h1l1 1q-12 25-2 46t40 33v2q-32-12-42-35-11-22 2-47M91 143l4-1q-11 15-14 32-3 13-2 29 1 13-4 26l-9 17-3 6-1 6v11l-6 19q-5 15-13 25l-12 9-3 2-3 1h-2l2-3 4-2 12-9q8-9 13-23 4-10 5-19v-11l1-6 3-7 9-17q5-13 4-26-1-20 2-30 2-13 13-29"/><path fill="#0d131a" d="M137 221l2 1 2 1q-11 7-21 26-10 17-9 26 0 3-2 5l-5 6q-7 5-12 12-7 10-11 23-2 5-2 12v11l-1 8q-2 3-11 6-9 2-15 1v-1l1-1q4 1 12-2 9-3 10-5v-7l1-10q0-7 2-13 5-13 12-23l11-13 5-5 2-4q0-9 8-26 10-19 21-28"/><path fill="#0d131a" d="M51 345q-2-5-4-6-7-1-17 5-9 5-11 10v2l14 2 18-1q2 0 2-3l-2-9m-4-8q3 1 6 7t3 10q0 3-2 4l-2 2H33l-15-2-1-2v-3q2-6 12-11 10-6 18-5"/><path fill="#0d131a" d="M49 339h-3q-2-7-6-10l-8-2q-10 1-20 13-4 4-5 8-2 4-1 5 3 2 12 1v1l-1 1H8q-5-1-4-4 1-9 10-18 8-8 17-9 14-1 18 14"/><path fill="#0d131a" d="M15 327l10-4q5 0 9 2v1h-1q-8-3-16 3-6 4-11 11-4 7-4 11l3 1v2l-2-1q-3 0-3-2 0-5 4-12 5-8 11-12M147 193v-9q0-2 1-1l1 4v7l-1 6v14l4 19q3 12 0 29l-3 11-2 5 1 17q0 11-2 20-5 24-13 33l-6 7q-4 3-4 5l-1 2h-2q-1-3 3-8l7-7q9-11 13-32 2-9 2-21l-1-16 1-6 3-10q4-16 1-29l-4-19 1-13 1-8M130 394q2 1 13-1 12-2 18-5l1-2-1-5-5-8q-3-4-6-3-4 1-9 6l-8 10-3 8m20-26l7 2 5 7 2 8q0 4-2 5-6 3-19 6-13 2-15 0v-3q1-6 8-14 7-9 14-11"/><path fill="#0d131a" d="M118 374q-5 9-6 21 0 2 7 1 7 0 10-2h1l1 1q-5 3-13 4-9 0-8-4 0-13 7-23 6-10 14-13 6-1 13 1 7 3 10 9l-1 1h-1q-5-6-10-8t-11 0q-7 2-13 12"/><path fill="#0d131a" d="M104 394q-1-16 9-28 11-11 25-7v1l-1 1q-13-3-22 8-10 10-8 25h4v2h-3q-3 0-4-2M208 223q4-6 22-9l1 2-14 4q-6 2-8 5v-1l-1-1M234 214l3-1 1 2-4 1v-2"/><path fill="#0d131a" d="M234 208l1-3 1 2 2 7 3 9 1-7v-7 1l1 3v12l-1 2-2-4-5-12v8l-1 3-2-3-4-7-4-8-1-2 2 2 8 14 1-10"/><path fill="#0d131a" d="M237 194v-5q1-1 2 3l6 25q7 23 10 28 4 5 22 18l19 15 9 13q7 14 6 23l-3 7-4 7-2 1h-2l5-8 3-8q1-8-5-20l-9-13-19-15q-19-14-22-19-4-5-10-27-6-20-6-25M202 246v-2l1-2 7 9 3 9q2 10 0 18-4 14-17 18v-1-1q9-3 13-12 4-8 2-21-2-10-9-15M244 262q3-10 2-14 0-4-5-9l-7-10-3-12 2 1 1 2 3 11 5 6q6 6 7 9 1 4-2 16l-5 22q-2 15 1 26 0 4-8 9l-12 3v-1l1-1q4 0 10-4 7-4 6-6-2-11 0-26l4-22"/><path fill="#0d131a" d="M215 302l3 1 4 4q5 6 4 13-1 4-14 5t-15-2v-1l5-10q6-7 13-10m8 18v-3l-1-7-4-5-2-1h-1q-6 2-11 9l-5 9 7 1 13-1 4-2"/><path fill="#0d131a" d="M207 295q3 0 5 2 3 2 5 6h-2q-4-6-9-6-6 1-14 12l-4 8-2 4q1 2 12 0v2q-12 2-13-1-1-1 1-5 1-4 5-9 8-12 16-13"/><path fill="#0d131a" d="M182 317l1-2h1v4h2q0-1 0 0v2h-3l-1-4M208 296h-9l-5 4v-1-2l7-3q5-1 7 2M329 250l2 1 2 1 1 4 1 5 7 28q6 20 17 39 4 7-11 15h-1v-1l7-6q4-4 2-8-10-18-17-39l-7-27-2-8-3-2q-14-8-20-24-5-12-6-36-1-21-3-30-4-16-13-25h3q9 9 13 24l3 31q1 24 5 35 6 15 20 23"/><path fill="#0d131a" d="M347 343v-1l-1-2-5-6-8-2q-3 1-8 9t-5 12l1 1q6 1 15-3l11-8m-14-13q7-1 13 5l2 5v4q-3 5-12 9-9 5-16 4-2-1-2-3 0-5 5-14 6-9 10-10"/><path fill="#0d131a" d="M333 331v1h-1l-8-6h-8q-6 2-9 10-4 8-5 19h7l10-4 1 1v1l-12 4q-8 2-8-2 1-11 5-20t11-11l8-1q5 2 9 8"/><path fill="#0d131a" d="M294 345q0-6 2-11 3-5 7-7 5-3 10-2v2h-1q-5-1-9 2-3 2-5 7-2 4-2 9l3 7h3v2q-3 1-4-1-3-3-4-8M294 82q13 1 18 11t2 22q-5 15-19 21-11 4-28 3l-12-3-13-5q-13-6-22-7-12-2-23 3v-1l1-1q10-6 23-3 7 1 22 7l12 5 12 3q16 1 26-3 14-5 19-20 3-10-2-19-5-10-16-11-10-2-18 5-8 6-7 17 0 5 3 9 2 4 7 6 10 4 19-6l2-1-2 3q-4 5-9 6-6 2-11 0-5-1-8-6-3-4-4-11 0-11 9-19 9-7 19-5"/><path fill="#0d131a" d="M211 103h-1l3-2q22-8 36-7 10 1 19 9v1h-1q-6-6-16-7-16-3-40 6M260 66l1 1v1q-13-3-22-3-9-1-14 3l-3 1 3-3q6-4 14-4t21 4"/><path fill="#0d131a" d="M285 38q8 0 15 5 7 4 10 12 3 7 3 15-1 9-7 17h-1l-1-1q5-7 6-16 1-7-2-14t-9-12q-7-4-14-4-14 0-20 6-7 7-4 19 1 6 6 10 5 2 11 2t11-3q5-2 7-7l2-2-1 4q-2 4-8 8l-11 3q-7 0-12-4-6-4-7-11-3-13 5-20 7-7 21-7"/><path fill="#0d131a" d="M272 31q2-3 2-1l-2 4q-8 16-18 20l-2-1-2-1q12-1 22-21"/><path fill="#0d131a" d="M287 28q1 7-2 11h-2l-1-1q3-4 2-10 0-6-4-12-9-14-28-14-9 0-16 6-6 5-8 14-2 8 0 15 2 8 8 11l2 1h-5q-6-5-7-13-2-8 0-16 3-9 9-14 7-6 17-6 20 0 30 15 4 6 5 13"/><path fill="#0d131a" d="M212 14q9 2 16 9l-1 1h-1q-6-6-14-8-9-1-17 5-7 7-7 17 0 9 7 14v1l-1 1q-8-4-8-16-1-11 8-18 8-7 18-6"/><path fill="#0d131a" d="M173 39q5-6 14-3v1l-1 1q-8-2-12 3-5 6-3 15h-1l-1-2q-1-10 4-15M299 132l1-1h1q5 7 5 20 1 15-5 23l-1-1v-1q5-8 4-22-1-12-5-18"/><path fill="#0d131a" d="M413 82l3-3q1 1-1 6l-6 15-6 16 9 3 4 2-3 2-15 3-3 17-2 4-1-2-3-14-11 11q-3 3-4 2l1-4 8-18-11-6-3-2h9l6 1q-7-9-24-24-18-14-27-19 6 20 4 64t-11 67l-2 4-3-3-20-33h1l1-1 21 33q9-23 11-69V97q-1-17-4-25v-3h3l27 21q18 15 24 24 2 1 1 2h-2l-10-1 9 6 2 1v2l-4 8-5 9 12-11 2-2 1 2 2 11 4-16v-1l15-3-10-3-1-2v-2l13-30-17 25-2 1-1-2-2-12-3 12-1 1-1-1q-9-12-27-27-20-17-38-26 5 34 5 65 0 30-5 61l-2 3q-1 1-2-2l-14-19v-2l1-1 14 21q6-31 6-59 1-30-5-65l1-4q1-1 3 1 19 9 38 25 16 14 26 28l2-12 2-4 2 3 1 5 1 7 9-13 8-11M157 84q1-3-1-5t-5-2l-4 2q-2 2-2 5t2 5l4 2q3 0 5-2l1-5m0-6q2 2 2 6t-2 6q-2 3-6 3-3 0-5-2-3-3-3-7 0-3 3-6 2-3 6-3 3 0 5 3M158 58l-2-6-6-2q-4 0-6 2-3 3-3 6t3 6q3 3 6 3 4 0 6-3l2-6m-1-7q3 3 3 7t-3 7q-3 3-7 3t-7-3q-4-3-4-7t3-7l8-2q4 0 7 2M74 249v3l-6 13q-4 7-8 10v-1l-1-1q3-2 7-9l6-12-10 7h-1v-1l5-4 6-4 2-1M173 268v-5q0-2 2 1l6 10 7 11 5-8h1v2l-5 6-1 2-2-3-11-18 6 18 5 15 9-9q0-1 0 0l1 1-8 9-2 2-2-2-5-15-6-17"/><path fill="#0d131a" d="M206 230l2-11v-5l-4-14-8-20 4 21 4 23-13 20h-1l-6-7-8-13q-1-1 5-43l-9 22-8 23 11 18 15 22 4-7 4-7 8-22m-12-52v-5l3 4 13 32q2 12-1 21l-11 33q-4 17-1 31v3l-3 4q-8 11-12 23-7 21-5 50 0 3-6 9t-10 7v-1-1q3-1 7-7 5-5 5-7-1-20 3-38 4-22 15-36l2-3 1-2-1-14q0-10 3-21l-4 6q-1 3-2 2l-2-1-15-22-11-18q-1-3 8-25l11-23 2-3 1 3-6 44 7 11 5 8 11-17 1-1-3-20-5-26M211 147l15-24h1l1 1-7 12-9 13-1 1-2-1q-6-10-14-16v-1l1-1q9 7 15 16"/><path fill="#0d131a" d="M236 145l-7-13-4 12-6 19q4 9 4 20v3q-1 1-3-2-6-12-15-24t-17-17l1-2h1q7 5 16 17l16 24-4-15-1-4 1-4 6-19 4-11 1-1 1 1 5 10 8 12 1 2v25l8-24q4-14 7-18h2l-8 20-8 25-1 2-2-5q-1-10 1-24l-7-9"/><path fill="#0d131a" d="M236 132l-7-7h2l2 1 12 12 2-7 1 1h1l-3 8v1l-1-1q-4-2-9-8M287 157l7 5 6 4v2h-1l-5-4-7-5 8 17 7 15-1 3-6-15-9-18-3-4q0-2 4 0M265 158l2-3 1 4 2 19 2 19 10 9 17 12 1-9 2-8v2l1 3-2 11-1 3-3-1q-8-4-17-12l-10-9-4-37-4 28-3 20 44 24 1-14 1 1 1 2-1 10-1 3-3-2-28-14-16-10 3-21 5-30"/><path fill="#0d131a" d="M314 241h2v14l-1 2-2-1-18-11-15-11-1-1h3l14 4 12 6 1-11 2 3-2 8-1 2-2-1-11-5-13-5q22 15 32 20v-13M117 88h2v10q1 4 5 7 2 3 5 3l7 1h1v1h-8l-6-3q-4-4-6-9V88M173 94h2q0 10-5 16l-4 3h-6l1-1h4l4-3q4-6 4-15"/><path fill="#0d131a" d="M170 97q1 5-1 9-1 5-4 5l-2-1-1-3h1l1 2 1 1q2 0 3-4 2-4 1-8l-1 2 1-2 1-1"/><path fill="#fff" d="M124 95l1 1 1 1-1 1h-1l-1-1 1-1v-1"/><path fill="#0d131a" d="M248 52h12v1l-1 1-12-1-9-2q-9-3-15-3-11 1-26 7l-1-1v-1q17-7 26-7l17 3 9 3"/><path fill="#0d131a" d="M260 50v3h-4l4-3"/></svg>